<?xml version="1.0" standalone="no"?>
<!DOCTYPE svg PUBLIC "-//W3C//DTD SVG 20010904//EN"
 "http://www.w3.org/TR/2001/REC-SVG-20010904/DTD/svg10.dtd">
<svg version="1.0" xmlns="http://www.w3.org/2000/svg"
 width="492.000000pt" height="271.000000pt" viewBox="0 0 492.000000 271.000000"
 preserveAspectRatio="xMidYMid meet">

<g transform="translate(0.000000,271.000000) scale(0.100000,-0.100000)"
fill="#000000" stroke="none">
<path d="M1319 2470 c-225 -38 -463 -161 -621 -322 -136 -138 -248 -334 -294
-513 -35 -134 -43 -331 -20 -462 45 -256 155 -465 338 -639 186 -176 417 -281
668 -303 214 -18 443 21 599 103 l44 23 -169 6 c-322 12 -585 73 -674 157 -17
16 -30 35 -30 44 0 14 26 16 233 17 217 0 230 1 207 16 -14 9 -71 63 -127 120
l-103 105 -45 -18 c-145 -55 -345 46 -423 214 -22 46 -27 71 -27 132 1 145 79
227 226 238 l66 4 -5 89 -5 89 723 0 723 0 -7 41 c-27 171 -168 414 -327 564
-90 85 -209 167 -225 154 -6 -5 -23 -34 -38 -65 -40 -82 -34 -132 32 -263 44
-87 52 -112 52 -158 0 -61 -17 -101 -56 -132 -40 -31 -46 -25 -18 17 40 58 31
116 -34 224 -69 114 -82 147 -82 210 0 50 32 134 72 191 11 14 10 19 -2 27
-30 19 -202 72 -278 85 -82 15 -297 18 -373 5z m471 -180 c27 -53 25 -84 -10
-158 -36 -77 -38 -115 -7 -173 54 -102 58 -169 12 -215 -34 -34 -49 -31 -30 6
20 40 19 58 -10 105 -68 113 -77 137 -73 194 3 47 11 67 47 118 42 59 44 64
38 117 -6 63 3 65 33 6z m510 -278 c0 -9 -8 -38 -17 -64 -16 -45 -16 -51 0
-95 20 -55 21 -86 7 -114 -16 -29 -40 -24 -40 9 0 16 -13 46 -30 68 -41 55
-42 116 0 164 20 24 29 46 30 70 l1 35 24 -28 c14 -15 25 -36 25 -45z"/>
<path d="M1693 1509 c-12 -22 -20 -46 -17 -53 12 -32 -128 -437 -149 -433 -8
1 -11 -11 -10 -33 1 -19 -7 -64 -18 -99 -23 -76 -24 -114 -4 -131 25 -20 41
-5 53 51 25 110 37 133 74 141 142 29 368 31 368 2 0 -8 7 -14 15 -14 9 0 15
-9 15 -23 0 -28 34 -67 59 -67 21 0 38 19 70 80 13 25 40 68 61 95 20 28 43
61 50 75 13 24 12 24 -5 10 -17 -14 -18 -14 -5 10 7 14 19 33 28 43 8 9 13 19
10 22 -6 7 -83 -106 -83 -122 0 -6 -4 -15 -9 -20 -5 -4 -6 -3 -2 5 16 27 -3 9
-45 -43 -24 -30 -45 -52 -47 -50 -2 2 15 41 38 86 61 121 131 216 150 204 13
-8 7 -82 -9 -98 -13 -13 -15 -31 -3 -23 5 3 0 -32 -9 -77 -25 -111 -24 -151 3
-176 11 -11 24 -18 28 -16 4 3 10 31 14 63 9 83 42 216 66 264 11 23 20 48 20
55 0 20 -48 39 -62 25 -8 -8 -17 -6 -35 5 -40 27 -95 3 -146 -62 -41 -52 -94
-148 -117 -208 l-10 -28 -31 23 c-29 22 -39 23 -200 23 l-170 0 58 55 c122
115 270 249 331 300 69 58 84 90 56 121 -23 26 -44 21 -64 -16 -9 -16 -87 -94
-172 -172 -86 -78 -154 -143 -152 -146 3 -2 -2 -10 -10 -16 -20 -16 -17 -5 24
119 50 152 73 259 59 276 -20 24 -43 15 -66 -27z m202 -202 c-38 -34 -110 -99
-158 -145 -49 -46 -92 -81 -95 -77 -4 4 0 12 9 18 44 33 89 78 85 86 -7 10 52
67 60 58 9 -9 35 13 29 23 -2 4 8 18 23 31 25 22 25 22 8 2 -32 -38 -4 -25 49
22 28 25 52 45 55 45 3 0 -26 -28 -65 -63z m-228 -9 c-3 -8 -6 -5 -6 6 -1 11
2 17 5 13 3 -3 4 -12 1 -19z m-16 -49 c-5 -13 -10 -19 -10 -12 -1 15 10 45 15
40 3 -2 0 -15 -5 -28z m-2 -74 c0 -5 -4 -3 -10 5 -8 11 -9 8 -5 -15 5 -23 4
-27 -5 -15 -8 12 -9 8 -5 -15 4 -19 3 -25 -2 -17 -7 10 -11 8 -15 -9 -4 -13
-8 -21 -11 -18 -3 2 5 32 17 66 16 45 24 58 29 45 4 -9 7 -21 7 -27z m-89
-260 c0 -5 -4 -4 -9 3 -5 9 -12 -1 -21 -32 -7 -25 -16 -46 -20 -46 -8 0 13 80
26 101 7 12 24 -7 24 -26z"/>
<path d="M1759 1214 c-21 -24 -22 -26 -3 -16 25 13 50 42 37 42 -5 0 -20 -12
-34 -26z"/>
<path d="M4171 1493 c-5 -10 -17 -44 -26 -75 -17 -61 -15 -60 -97 -73 -29 -4
-38 -11 -38 -25 0 -25 17 -34 57 -32 30 2 33 0 33 -25 0 -22 2 -25 10 -13 6
10 10 11 10 3 0 -7 4 -13 9 -13 5 0 12 6 14 13 2 6 2 -1 0 -18 -13 -76 -20
-100 -31 -98 -14 3 -16 -13 -3 -21 9 -6 2 -45 -22 -126 -8 -24 -16 -38 -18
-31 -3 7 -4 -11 -3 -39 1 -28 0 -60 -3 -71 -5 -18 -7 -17 -20 8 -14 26 -13 49
4 123 3 14 3 22 -1 18 -11 -10 -35 -119 -36 -160 0 -29 6 -41 29 -57 16 -12
34 -21 40 -21 17 0 51 38 51 56 0 15 -2 15 -25 0 -25 -16 -25 -16 -25 14 0 50
56 294 107 464 4 16 13 18 69 14 60 -4 64 -3 64 18 0 25 -17 34 -64 34 -44 0
-47 5 -30 52 8 22 14 51 14 63 0 36 -52 49 -69 18z m-134 -655 c-3 -8 -6 -5
-6 6 -1 11 2 17 5 13 3 -3 4 -12 1 -19z"/>
<path d="M3556 1398 c-28 -38 -48 -83 -39 -92 4 -3 16 -6 28 -6 17 0 26 10 39
43 29 78 14 109 -28 55z"/>
<path d="M3186 1298 c-30 -46 -66 -141 -61 -158 3 -10 1 -21 -4 -25 -7 -4 -8
1 -4 12 6 16 5 16 -10 4 -9 -7 -14 -18 -11 -23 3 -5 -4 -20 -15 -32 -18 -20
-20 -25 -7 -35 11 -9 15 -7 20 15 4 14 9 24 11 22 3 -3 -4 -29 -15 -59 -12
-31 -18 -41 -14 -22 8 45 -8 47 -40 7 -15 -20 -31 -33 -34 -30 -3 3 -15 -2
-26 -11 -21 -18 -21 -18 -2 4 10 13 23 20 29 16 6 -4 7 -1 2 6 -4 8 4 25 21
44 16 17 -6 -1 -48 -40 -82 -76 -131 -108 -154 -99 -19 7 -17 59 4 120 14 41
22 50 43 52 92 9 203 150 169 214 -15 28 -81 27 -127 -1 -44 -28 -132 -158
-149 -223 -19 -70 -17 -110 6 -156 15 -30 29 -41 57 -49 21 -6 43 -11 49 -11
24 0 95 63 142 125 l50 66 -4 -63 c-3 -54 0 -66 22 -95 14 -19 30 -33 36 -31
5 2 22 33 38 68 36 84 178 328 185 318 1 -2 -2 -39 -6 -83 -14 -144 -11 -244
8 -276 18 -30 39 -43 54 -33 15 9 10 34 -7 34 -15 0 -16 12 -11 103 4 56 9
136 13 178 8 94 1 126 -31 141 -31 14 -60 -5 -46 -30 7 -12 1 -28 -22 -59 -17
-24 -34 -43 -39 -43 -5 0 -7 -4 -3 -9 3 -6 -4 -8 -16 -6 -15 3 -19 0 -15 -11
3 -8 1 -12 -4 -9 -5 3 -21 -17 -35 -45 -14 -27 -27 -50 -30 -50 -6 0 27 92 64
177 36 84 35 77 15 97 -21 21 -31 20 -48 -6z m-192 -90 c-21 -42 -61 -86 -96
-104 -38 -20 -39 -19 -16 27 26 55 121 151 126 127 2 -9 -4 -32 -14 -50z m375
-41 c0 -21 -1 -21 -9 -2 -12 28 -12 37 0 30 6 -3 10 -16 9 -28z m-15 -146 c-3
-40 -9 -70 -11 -67 -3 3 -2 37 2 76 4 39 9 69 12 67 2 -3 1 -37 -3 -76z"/>
<path d="M1064 1291 c-111 -51 -141 -170 -75 -299 60 -118 212 -198 323 -172
26 7 48 14 48 17 0 3 -29 65 -64 137 -35 72 -74 169 -86 216 -12 47 -25 92
-30 100 -11 22 -69 23 -116 1z"/>
<path d="M2497 1262 c-60 -110 -159 -435 -161 -529 -1 -47 2 -57 24 -73 37
-29 52 -26 43 8 -4 15 -6 40 -5 57 2 33 51 175 61 175 3 0 15 -7 25 -15 30
-23 67 -18 117 14 88 56 131 127 143 231 5 45 3 61 -14 88 -20 33 -62 58 -68
41 -2 -5 -13 -14 -25 -20 -21 -10 -21 -10 -3 5 11 9 15 16 9 16 -5 0 -18 -9
-29 -21 -10 -11 -14 -20 -9 -19 25 5 24 -3 -5 -40 -18 -22 -58 -86 -91 -142
-32 -57 -59 -96 -59 -88 0 8 6 26 13 40 7 14 14 37 15 53 1 15 24 78 52 139
37 83 46 114 37 120 -26 17 -45 6 -70 -40z m197 -54 c3 -18 1 -64 -3 -101 -11
-80 -38 -128 -103 -178 -41 -31 -40 -30 15 28 31 34 57 65 57 69 0 4 -19 -14
-41 -40 -46 -52 -85 -76 -124 -76 -31 0 -31 9 -4 63 62 122 164 267 189 267 4
0 10 -15 14 -32z m23 -85 c-3 -10 -5 -2 -5 17 0 19 2 27 5 18 2 -10 2 -26 0
-35z m-262 -48 c-7 -28 -25 -86 -39 -130 -14 -44 -26 -87 -27 -95 0 -10 -2
-11 -6 -3 -2 7 0 27 6 45 5 18 24 80 41 136 32 106 49 138 25 47z"/>
<path d="M3799 1290 c-19 -10 -59 -40 -87 -65 -48 -43 -52 -50 -52 -92 0 -27
-4 -42 -10 -38 -6 4 -9 3 -8 -2 2 -5 -3 -15 -10 -23 -7 -8 -39 -50 -72 -92
-33 -43 -65 -78 -72 -78 -17 0 -2 113 28 203 28 83 26 107 -5 107 -39 0 -90
-148 -91 -261 0 -59 31 -99 77 -99 24 0 38 8 61 38 38 49 101 149 113 178 l9
24 32 -20 c18 -11 50 -25 72 -31 l39 -10 -49 -33 c-68 -46 -126 -112 -122
-139 4 -28 49 -53 74 -42 16 8 13 10 -15 13 -26 3 -31 6 -20 13 11 7 11 9 -3
9 -28 0 -22 15 25 60 48 48 132 100 162 100 11 0 35 -9 53 -20 28 -17 31 -23
22 -40 -6 -11 -26 -30 -45 -43 l-35 -24 26 -11 c14 -7 23 -9 20 -4 -2 4 4 14
16 21 11 7 17 8 13 2 -3 -6 -4 -11 -1 -11 9 0 36 58 36 78 0 23 -43 65 -56 55
-5 -4 -2 0 6 9 23 26 99 33 117 11 14 -17 14 -17 9 0 -3 9 -1 17 4 17 6 0 10
9 10 20 0 21 -10 26 -25 11 -6 -5 -28 -12 -50 -15 l-40 -6 45 14 c36 11 40 14
18 15 -14 1 -54 -8 -88 -18 l-61 -19 -72 24 c-39 13 -75 28 -80 33 -23 23 92
117 156 128 21 3 40 9 42 13 10 16 -7 39 -37 49 -38 14 -36 14 -79 -9z m-79
-93 c0 -2 -10 -12 -22 -23 l-23 -19 19 23 c18 21 26 27 26 19z m225 -137 c-3
-5 -12 -10 -18 -10 -7 0 -6 4 3 10 19 12 23 12 15 0z m-488 -122 c-3 -8 -6 -5
-6 6 -1 11 2 17 5 13 3 -3 4 -12 1 -19z"/>
<path d="M4353 1263 c-58 -32 -143 -166 -183 -286 l-23 -68 20 -27 c26 -35 57
-39 77 -10 71 100 145 221 141 229 -3 5 -1 19 6 31 16 32 3 17 -76 -87 -89
-117 -90 -118 -69 -65 50 127 165 291 183 261 11 -16 7 -63 -6 -83 -4 -7 -8
-24 -9 -38 -1 -14 -9 -67 -18 -119 -17 -92 -17 -95 2 -120 33 -44 46 -34 54
43 9 95 36 201 64 259 13 27 24 50 24 53 0 2 -11 11 -25 20 -20 13 -28 14 -40
4 -13 -10 -19 -10 -33 4 -24 21 -49 20 -89 -1z"/>
<path d="M3291 1246 c-10 -11 -9 -14 1 -12 14 2 23 15 15 22 -2 2 -10 -2 -16
-10z"/>
<path d="M3266 1211 c-4 -5 -2 -12 3 -15 5 -4 12 -2 15 3 4 5 2 12 -3 15 -5 4
-12 2 -15 -3z"/>
<path d="M2563 1173 c-37 -49 -75 -114 -69 -120 2 -3 12 10 21 29 10 18 33 54
51 81 40 56 38 63 -3 10z"/>
<path d="M4106 1194 c-9 -23 -7 -34 5 -34 6 0 9 6 6 14 -3 7 0 19 6 25 8 8 8
11 0 11 -6 0 -14 -7 -17 -16z"/>
<path d="M3239 1173 c-12 -16 -12 -17 2 -6 9 7 20 9 24 5 5 -4 5 -1 1 6 -9 16
-11 15 -27 -5z"/>
<path d="M4409 1173 c-13 -16 -12 -17 4 -4 16 13 21 21 13 21 -2 0 -10 -8 -17
-17z"/>
<path d="M4396 1113 c-6 -14 -5 -15 5 -6 7 7 10 15 7 18 -3 3 -9 -2 -12 -12z"/>
<path d="M4076 1054 c-4 -9 -4 -19 -1 -22 2 -3 7 3 11 12 4 9 4 19 1 22 -2 3
-7 -3 -11 -12z"/>
<path d="M2467 702 c-45 -49 11 -111 77 -86 28 11 17 19 -26 19 -39 0 -43 2
-46 27 -4 34 27 54 59 38 23 -13 35 -8 24 9 -10 18 -70 13 -88 -7z"/>
<path d="M2636 704 c-36 -35 -6 -94 47 -94 28 0 67 31 67 53 0 7 -7 23 -16 35
-18 26 -74 30 -98 6z m75 -4 c41 -23 13 -74 -38 -68 -34 4 -45 44 -17 65 22
16 30 16 55 3z"/>
<path d="M2810 665 c0 -30 5 -55 10 -55 6 0 10 11 10 24 0 20 6 25 33 29 l32
4 -32 1 c-25 2 -33 7 -33 21 0 15 8 21 38 24 34 3 33 4 -10 5 l-48 2 0 -55z"/>
<path d="M2960 665 c0 -30 5 -55 10 -55 6 0 10 11 10 24 0 20 6 25 33 29 l32
4 -33 1 c-47 3 -40 35 8 43 33 6 32 6 -12 8 l-48 1 0 -55z"/>
<path d="M3120 665 l0 -55 40 0 c22 0 40 5 40 10 0 6 -16 10 -35 10 -24 0 -35
5 -35 15 0 11 11 15 36 15 21 0 33 4 29 10 -3 6 -20 10 -36 10 -42 0 -33 23
12 31 34 6 34 6 -8 8 l-43 1 0 -55z"/>
<path d="M3270 665 l0 -55 45 0 c25 0 45 5 45 10 0 6 -16 10 -35 10 -24 0 -35
5 -35 15 0 10 10 15 30 15 17 0 30 5 30 10 0 6 -14 10 -31 10 -42 0 -33 23 12
31 31 6 30 6 -13 8 l-48 1 0 -55z"/>
<path d="M3534 703 c-3 -10 -11 -28 -16 -40 -17 -35 5 -53 64 -51 32 0 46 4
39 11 -5 5 -7 16 -3 25 4 11 1 14 -10 9 -17 -6 -63 35 -52 46 4 4 18 4 32 0
17 -4 23 -2 18 6 -12 18 -66 14 -72 -6z m37 -59 c11 -14 10 -15 -11 -12 -13 1
-25 9 -28 16 -5 17 23 15 39 -4z"/>
<path d="M3798 709 c-26 -15 -24 -75 2 -89 25 -13 72 -10 77 6 2 7 -8 9 -27 6
-55 -8 -80 35 -36 63 20 13 29 14 46 5 18 -10 21 -9 18 2 -6 16 -57 21 -80 7z"/>
<path d="M3950 665 c0 -30 5 -55 10 -55 6 0 10 11 10 25 0 22 4 25 35 25 31 0
35 -3 35 -25 0 -14 5 -25 10 -25 6 0 10 25 10 55 0 30 -4 55 -10 55 -5 0 -10
-11 -10 -25 0 -22 -4 -25 -35 -25 -31 0 -35 3 -35 25 0 14 -4 25 -10 25 -5 0
-10 -25 -10 -55z"/>
<path d="M4143 709 c22 -13 24 -79 2 -79 -8 0 -15 -4 -15 -10 0 -5 16 -10 35
-10 19 0 35 5 35 10 0 6 -7 10 -15 10 -22 0 -20 66 3 79 13 8 9 10 -23 10 -32
0 -36 -2 -22 -10z"/>
<path d="M4270 665 l0 -55 45 0 c25 0 45 5 45 10 0 6 -16 10 -35 10 -35 0 -35
0 -35 45 0 25 -4 45 -10 45 -5 0 -10 -25 -10 -55z"/>
<path d="M4432 668 l-2 -58 40 0 c22 0 40 5 40 10 0 6 -16 10 -34 10 -34 0
-35 1 -39 48 -3 46 -3 46 -5 -10z"/>
</g>
</svg>
